<?xml version="1.0" encoding="UTF-8"?>
<svg id="Capa_1" xmlns="http://www.w3.org/2000/svg" xmlns:xlink="http://www.w3.org/1999/xlink" version="1.1" viewBox="0 0 550 250">
  <!-- Generator: Adobe Illustrator 29.6.1, SVG Export Plug-In . SVG Version: 2.1.1 Build 9)  -->
  <defs>
    <style>
      .st0, .st1 {
        fill: none;
      }

      .st1 {
        stroke: #2196f3;
        stroke-miterlimit: 10;
      }

      .st2 {
        fill: #fff;
      }

      .st3 {
        clip-path: url(#clippath);
      }
    </style>
    <clipPath id="clippath">
      <path class="st0" d="M455,41.2c-12.2,6.5-20.6,19.4-20.6,34.3,0,21.5,17.4,38.8,38.8,38.8s26.1-7.3,32.9-18.2l-51.2-54.9Z"/>
    </clipPath>
  </defs>
  <g>
    <path class="st2" d="M163.9,61.1v15.7h21.1v10h-21.1v16.6h23.8v10.2h-36.3v-62.7h36.3v10.2h-23.8Z"/>
    <path class="st2" d="M201.6,65.6c2.8-4.9,6.6-8.7,11.4-11.4,4.8-2.7,10.2-4.1,16.2-4.1s13.1,1.8,18.4,5.4c5.3,3.6,8.9,8.5,11,14.9h-14.4c-1.4-3-3.5-5.2-6.1-6.7-2.6-1.5-5.6-2.2-9-2.2s-6.9.9-9.7,2.6c-2.8,1.7-5.1,4.1-6.6,7.2-1.6,3.1-2.4,6.8-2.4,10.9s.8,7.8,2.4,10.9c1.6,3.1,3.8,5.6,6.6,7.3,2.8,1.7,6.1,2.6,9.7,2.6s6.4-.8,9-2.3c2.6-1.5,4.6-3.8,6.1-6.8h14.4c-2.1,6.4-5.8,11.4-11,14.9-5.2,3.6-11.4,5.3-18.4,5.3s-11.4-1.4-16.2-4.1c-4.8-2.7-8.6-6.5-11.4-11.3-2.8-4.8-4.2-10.3-4.2-16.5s1.4-11.7,4.2-16.5Z"/>
    <path class="st2" d="M283.5,110c-4.9-2.7-8.8-6.6-11.7-11.4-2.9-4.9-4.3-10.4-4.3-16.5s1.4-11.6,4.3-16.5c2.9-4.9,6.8-8.7,11.7-11.4,4.9-2.7,10.3-4.1,16.1-4.1s11.3,1.4,16.2,4.1c4.9,2.8,8.7,6.6,11.6,11.4,2.8,4.9,4.3,10.4,4.3,16.5s-1.4,11.7-4.3,16.5c-2.8,4.9-6.7,8.7-11.6,11.4-4.9,2.8-10.3,4.1-16.1,4.1s-11.2-1.4-16.1-4.1ZM309.6,100.4c2.9-1.7,5.1-4.1,6.7-7.3,1.6-3.2,2.4-6.8,2.4-11s-.8-7.8-2.4-11c-1.6-3.1-3.9-5.5-6.7-7.2-2.9-1.7-6.2-2.5-10-2.5s-7.1.8-10,2.5c-2.9,1.7-5.2,4.1-6.8,7.2-1.6,3.1-2.4,6.8-2.4,11s.8,7.9,2.4,11c1.6,3.2,3.9,5.6,6.8,7.3,2.9,1.7,6.2,2.6,10,2.6s7.1-.9,10-2.6Z"/>
  </g>
  <g>
    <path class="st2" d="M65.6,122.2v15.5h-16.5v46.7h-19.5v-46.7H13.2v-15.5h52.3Z"/>
    <path class="st2" d="M104.1,184.4l-11.7-22.3h0v22.3h-19.5v-62.2h29c5,0,9.3.9,12.9,2.7,3.6,1.8,6.2,4.2,8,7.3,1.8,3.1,2.7,6.5,2.7,10.4s-1.2,7.8-3.5,11.1c-2.3,3.2-5.6,5.5-10,6.9l13.5,23.8h-21.4ZM92.3,149.1h7.7c1.9,0,3.3-.4,4.2-1.3.9-.8,1.4-2.2,1.4-4s-.5-2.9-1.4-3.9c-1-.9-2.4-1.4-4.2-1.4h-7.7v10.5Z"/>
    <path class="st2" d="M173.4,175h-20.7l-3.1,9.4h-20.5l22.7-62.2h22.5l22.7,62.2h-20.6l-3.1-9.4ZM168.7,160.3l-5.6-17.3-5.6,17.3h11.2Z"/>
    <path class="st2" d="M205.4,136.8c2.5-4.8,6-8.5,10.7-11.2,4.6-2.7,10.1-4,16.3-4s10.2,1,14.4,3c4.2,2,7.7,4.9,10.4,8.6,2.7,3.7,4.4,8,5.3,12.9h-20.6c-.9-2-2.3-3.6-4-4.8-1.7-1.1-3.7-1.7-5.9-1.7-3.3,0-5.9,1.2-7.8,3.7-1.9,2.5-2.9,5.8-2.9,9.9s1,7.5,2.9,9.9c1.9,2.5,4.5,3.7,7.8,3.7s4.2-.6,5.9-1.7c1.7-1.1,3.1-2.7,4-4.8h20.6c-.9,4.9-2.6,9.2-5.3,12.9-2.7,3.7-6.1,6.5-10.4,8.6-4.2,2-9.1,3-14.4,3s-11.7-1.3-16.3-4c-4.6-2.7-8.2-6.4-10.7-11.2-2.5-4.8-3.7-10.3-3.7-16.4s1.2-11.6,3.7-16.4Z"/>
    <path class="st2" d="M309,184.4l-18.1-27v27h-19.5v-62.2h19.5v26.2l17.8-26.2h22l-21.4,29.8,22.8,32.4h-23.2Z"/>
  </g>
  <path class="st1" d="M302.8,11"/>
  <path class="st1" d="M305.8,11"/>
  <path class="st2" d="M536.8,221.8v-68.7c0-5.1-6.3-7.6-9.8-3.9l-73.4,78.9c-3.6,3.9-.9,10.3,4.4,10.4,16.5.3,43.9.6,61.7.5s17-7.7,17-17.2Z"/>
  <path class="st2" d="M517.3,107.9c6.7-9,10.6-20.2,10.6-32.3,0-30.1-24.4-54.4-54.4-54.4s-20.7,3.1-29.2,8.5l10.9,11.6c-12.2,6.5-20.5,19.4-20.5,34.3,0,21.5,17.4,38.8,38.8,38.8s26.1-7.3,32.9-18.2l-51.2-54.9c5.4-2.9,11.7-4.6,18.3-4.6,21.5,0,38.8,17.4,38.8,38.8s-2.2,14.6-5.9,20.6l10.9,11.7c-9.9,13.4-25.8,22.1-43.8,22.1-30.1,0-54.4-24.4-54.4-54.4s10.1-36.3,25.3-45.9l-7.1-7.6c-6.6-7-15.7-11-25.3-11h-97.2c-4.2,0-6.6,4.9-3.8,8.2,13.2,15.8,43.8,52.2,77.9,90.7,6.7,7.6,6.9,19.1.4,26.9l-76.6,91.4c-3.4,4-.5,10.1,4.7,10.1h93.9c10.1,0,19.8-4.2,26.7-11.6l85.4-91.6c5.5-5.9,5.5-15,0-20.9l-5.9-6.3Z"/>
  <g class="st3">
    <g>
      <g>
        <path d="M433.3,74.7v-.8h1.8v-5.6h-1.4v-.6c.3,0,.6-.1.9-.2.3,0,.5-.2.7-.3h.8v6.8h1.6v.8h-4.3Z"/>
        <path d="M441.1,74.9c-.8,0-1.4-.3-1.8-1-.4-.7-.7-1.7-.7-3s.2-2.3.7-2.9c.4-.7,1-1,1.8-1s1.4.3,1.8,1c.4.7.7,1.7.7,2.9s-.2,2.3-.7,3c-.4.7-1,1-1.8,1ZM441.1,74.1c.3,0,.6-.1.8-.3.2-.2.4-.6.5-1s.2-1.1.2-1.8,0-1.4-.2-1.8-.3-.8-.5-1c-.2-.2-.5-.3-.8-.3s-.6.1-.8.3c-.2.2-.4.6-.5,1s-.2,1.1-.2,1.8,0,1.4.2,1.8.3.8.5,1c.2.2.5.3.8.3Z"/>
        <path d="M444.9,74.7v-.8h1.8v-5.6h-1.4v-.6c.3,0,.6-.1.9-.2.3,0,.5-.2.7-.3h.8v6.8h1.6v.8h-4.3Z"/>
        <path d="M452.8,74.9c-.8,0-1.4-.3-1.8-1-.4-.7-.7-1.7-.7-3s.2-2.3.7-2.9c.4-.7,1-1,1.8-1s1.4.3,1.8,1c.4.7.7,1.7.7,2.9s-.2,2.3-.7,3c-.4.7-1,1-1.8,1ZM452.8,74.1c.3,0,.6-.1.8-.3.2-.2.4-.6.5-1s.2-1.1.2-1.8,0-1.4-.2-1.8-.3-.8-.5-1c-.2-.2-.5-.3-.8-.3s-.6.1-.8.3c-.2.2-.4.6-.5,1s-.2,1.1-.2,1.8,0,1.4.2,1.8.3.8.5,1c.2.2.5.3.8.3Z"/>
        <path d="M456.5,74.7v-.8h1.8v-5.6h-1.4v-.6c.3,0,.6-.1.9-.2.3,0,.5-.2.7-.3h.8v6.8h1.6v.8h-4.3Z"/>
        <path d="M464.4,74.9c-.8,0-1.4-.3-1.8-1-.4-.7-.7-1.7-.7-3s.2-2.3.7-2.9c.4-.7,1-1,1.8-1s1.4.3,1.8,1c.4.7.7,1.7.7,2.9s-.2,2.3-.7,3c-.4.7-1,1-1.8,1ZM464.4,74.1c.3,0,.6-.1.8-.3.2-.2.4-.6.5-1s.2-1.1.2-1.8,0-1.4-.2-1.8-.3-.8-.5-1c-.2-.2-.5-.3-.8-.3s-.6.1-.8.3c-.2.2-.4.6-.5,1s-.2,1.1-.2,1.8,0,1.4.2,1.8.3.8.5,1c.2.2.5.3.8.3Z"/>
        <path d="M468.1,74.7v-.8h1.8v-5.6h-1.4v-.6c.3,0,.6-.1.9-.2.3,0,.5-.2.7-.3h.8v6.8h1.6v.8h-4.3Z"/>
        <path d="M476,74.9c-.8,0-1.4-.3-1.8-1-.4-.7-.7-1.7-.7-3s.2-2.3.7-2.9c.4-.7,1-1,1.8-1s1.4.3,1.8,1c.4.7.7,1.7.7,2.9s-.2,2.3-.7,3c-.4.7-1,1-1.8,1ZM476,74.1c.3,0,.6-.1.8-.3.2-.2.4-.6.5-1s.2-1.1.2-1.8,0-1.4-.2-1.8-.3-.8-.5-1c-.2-.2-.5-.3-.8-.3s-.6.1-.8.3c-.2.2-.4.6-.5,1s-.2,1.1-.2,1.8,0,1.4.2,1.8.3.8.5,1c.2.2.5.3.8.3Z"/>
        <path d="M479.8,74.7v-.8h1.8v-5.6h-1.4v-.6c.3,0,.6-.1.9-.2.3,0,.5-.2.7-.3h.8v6.8h1.6v.8h-4.3Z"/>
        <path d="M487.6,74.9c-.8,0-1.4-.3-1.8-1-.4-.7-.7-1.7-.7-3s.2-2.3.7-2.9c.4-.7,1-1,1.8-1s1.4.3,1.8,1c.4.7.7,1.7.7,2.9s-.2,2.3-.7,3c-.4.7-1,1-1.8,1ZM487.6,74.1c.3,0,.6-.1.8-.3.2-.2.4-.6.5-1s.2-1.1.2-1.8,0-1.4-.2-1.8-.3-.8-.5-1c-.2-.2-.5-.3-.8-.3s-.6.1-.8.3c-.2.2-.4.6-.5,1s-.2,1.1-.2,1.8,0,1.4.2,1.8.3.8.5,1c.2.2.5.3.8.3Z"/>
      </g>
      <g>
        <path d="M435.5,65c-.8,0-1.4-.3-1.8-1-.4-.7-.7-1.7-.7-3s.2-2.3.7-2.9c.4-.7,1-1,1.8-1s1.4.3,1.8,1c.4.7.7,1.7.7,2.9s-.2,2.3-.7,3c-.4.7-1,1-1.8,1ZM435.5,64.2c.3,0,.6-.1.8-.3.2-.2.4-.6.5-1s.2-1.1.2-1.8,0-1.4-.2-1.8-.3-.8-.5-1c-.2-.2-.5-.3-.8-.3s-.6.1-.8.3c-.2.2-.4.6-.5,1s-.2,1.1-.2,1.8,0,1.4.2,1.8.3.8.5,1c.2.2.5.3.8.3Z"/>
        <path d="M439.3,64.8v-.8h1.8v-5.6h-1.4v-.6c.3,0,.6-.1.9-.2.3,0,.5-.2.7-.3h.8v6.8h1.6v.8h-4.3Z"/>
        <path d="M447.1,65c-.8,0-1.4-.3-1.8-1-.4-.7-.7-1.7-.7-3s.2-2.3.7-2.9c.4-.7,1-1,1.8-1s1.4.3,1.8,1c.4.7.7,1.7.7,2.9s-.2,2.3-.7,3c-.4.7-1,1-1.8,1ZM447.1,64.2c.3,0,.6-.1.8-.3.2-.2.4-.6.5-1s.2-1.1.2-1.8,0-1.4-.2-1.8-.3-.8-.5-1c-.2-.2-.5-.3-.8-.3s-.6.1-.8.3c-.2.2-.4.6-.5,1s-.2,1.1-.2,1.8,0,1.4.2,1.8.3.8.5,1c.2.2.5.3.8.3Z"/>
        <path d="M450.9,64.8v-.8h1.8v-5.6h-1.4v-.6c.3,0,.6-.1.9-.2.3,0,.5-.2.7-.3h.8v6.8h1.6v.8h-4.3Z"/>
        <path d="M458.7,65c-.8,0-1.4-.3-1.8-1-.4-.7-.7-1.7-.7-3s.2-2.3.7-2.9c.4-.7,1-1,1.8-1s1.4.3,1.8,1c.4.7.7,1.7.7,2.9s-.2,2.3-.7,3c-.4.7-1,1-1.8,1ZM458.7,64.2c.3,0,.6-.1.8-.3.2-.2.4-.6.5-1s.2-1.1.2-1.8,0-1.4-.2-1.8-.3-.8-.5-1c-.2-.2-.5-.3-.8-.3s-.6.1-.8.3c-.2.2-.4.6-.5,1s-.2,1.1-.2,1.8,0,1.4.2,1.8.3.8.5,1c.2.2.5.3.8.3Z"/>
        <path d="M462.5,64.8v-.8h1.8v-5.6h-1.4v-.6c.3,0,.6-.1.9-.2.3,0,.5-.2.7-.3h.8v6.8h1.6v.8h-4.3Z"/>
        <path d="M470.3,65c-.8,0-1.4-.3-1.8-1-.4-.7-.7-1.7-.7-3s.2-2.3.7-2.9c.4-.7,1-1,1.8-1s1.4.3,1.8,1c.4.7.7,1.7.7,2.9s-.2,2.3-.7,3c-.4.7-1,1-1.8,1ZM470.3,64.2c.3,0,.6-.1.8-.3.2-.2.4-.6.5-1s.2-1.1.2-1.8,0-1.4-.2-1.8-.3-.8-.5-1c-.2-.2-.5-.3-.8-.3s-.6.1-.8.3c-.2.2-.4.6-.5,1s-.2,1.1-.2,1.8,0,1.4.2,1.8.3.8.5,1c.2.2.5.3.8.3Z"/>
        <path d="M474.1,64.8v-.8h1.8v-5.6h-1.4v-.6c.3,0,.6-.1.9-.2.3,0,.5-.2.7-.3h.8v6.8h1.6v.8h-4.3Z"/>
      </g>
      <g>
        <path d="M441.1,54.8c-.8,0-1.4-.3-1.8-1-.4-.7-.7-1.7-.7-3s.2-2.3.7-2.9c.4-.7,1-1,1.8-1s1.4.3,1.8,1c.4.7.7,1.7.7,2.9s-.2,2.3-.7,3c-.4.7-1,1-1.8,1ZM441.1,54c.3,0,.6-.1.8-.3.2-.2.4-.6.5-1s.2-1.1.2-1.8,0-1.4-.2-1.8-.3-.8-.5-1c-.2-.2-.5-.3-.8-.3s-.6.1-.8.3c-.2.2-.4.6-.5,1s-.2,1.1-.2,1.8,0,1.4.2,1.8.3.8.5,1c.2.2.5.3.8.3Z"/>
        <path d="M444.9,54.6v-.8h1.8v-5.6h-1.4v-.6c.3,0,.6-.1.9-.2.3,0,.5-.2.7-.3h.8v6.8h1.6v.8h-4.3Z"/>
        <path d="M452.8,54.8c-.8,0-1.4-.3-1.8-1-.4-.7-.7-1.7-.7-3s.2-2.3.7-2.9c.4-.7,1-1,1.8-1s1.4.3,1.8,1c.4.7.7,1.7.7,2.9s-.2,2.3-.7,3c-.4.7-1,1-1.8,1ZM452.8,54c.3,0,.6-.1.8-.3.2-.2.4-.6.5-1s.2-1.1.2-1.8,0-1.4-.2-1.8-.3-.8-.5-1c-.2-.2-.5-.3-.8-.3s-.6.1-.8.3c-.2.2-.4.6-.5,1s-.2,1.1-.2,1.8,0,1.4.2,1.8.3.8.5,1c.2.2.5.3.8.3Z"/>
        <path d="M456.5,54.6v-.8h1.8v-5.6h-1.4v-.6c.3,0,.6-.1.9-.2.3,0,.5-.2.7-.3h.8v6.8h1.6v.8h-4.3Z"/>
        <path d="M464.4,54.8c-.8,0-1.4-.3-1.8-1-.4-.7-.7-1.7-.7-3s.2-2.3.7-2.9c.4-.7,1-1,1.8-1s1.4.3,1.8,1c.4.7.7,1.7.7,2.9s-.2,2.3-.7,3c-.4.7-1,1-1.8,1ZM464.4,54c.3,0,.6-.1.8-.3.2-.2.4-.6.5-1s.2-1.1.2-1.8,0-1.4-.2-1.8-.3-.8-.5-1c-.2-.2-.5-.3-.8-.3s-.6.1-.8.3c-.2.2-.4.6-.5,1s-.2,1.1-.2,1.8,0,1.4.2,1.8.3.8.5,1c.2.2.5.3.8.3Z"/>
      </g>
      <path d="M450.9,44.4v-.8h1.8v-5.6h-1.4v-.6c.3,0,.6-.1.9-.2.3,0,.5-.2.7-.3h.8v6.8h1.6v.8h-4.3Z"/>
      <g>
        <path d="M435.5,84.9c-.8,0-1.4-.3-1.8-1-.4-.7-.7-1.7-.7-3s.2-2.3.7-2.9c.4-.7,1-1,1.8-1s1.4.3,1.8,1c.4.7.7,1.7.7,2.9s-.2,2.3-.7,3c-.4.7-1,1-1.8,1ZM435.5,84.1c.3,0,.6-.1.8-.3.2-.2.4-.6.5-1s.2-1.1.2-1.8,0-1.4-.2-1.8-.3-.8-.5-1c-.2-.2-.5-.3-.8-.3s-.6.1-.8.3c-.2.2-.4.6-.5,1s-.2,1.1-.2,1.8,0,1.4.2,1.8.3.8.5,1c.2.2.5.3.8.3Z"/>
        <path d="M439.3,84.8v-.8h1.8v-5.6h-1.4v-.6c.3,0,.6-.1.9-.2.3,0,.5-.2.7-.3h.8v6.8h1.6v.8h-4.3Z"/>
        <path d="M447.1,84.9c-.8,0-1.4-.3-1.8-1-.4-.7-.7-1.7-.7-3s.2-2.3.7-2.9c.4-.7,1-1,1.8-1s1.4.3,1.8,1c.4.7.7,1.7.7,2.9s-.2,2.3-.7,3c-.4.7-1,1-1.8,1ZM447.1,84.1c.3,0,.6-.1.8-.3.2-.2.4-.6.5-1s.2-1.1.2-1.8,0-1.4-.2-1.8-.3-.8-.5-1c-.2-.2-.5-.3-.8-.3s-.6.1-.8.3c-.2.2-.4.6-.5,1s-.2,1.1-.2,1.8,0,1.4.2,1.8.3.8.5,1c.2.2.5.3.8.3Z"/>
        <path d="M450.9,84.8v-.8h1.8v-5.6h-1.4v-.6c.3,0,.6-.1.9-.2.3,0,.5-.2.7-.3h.8v6.8h1.6v.8h-4.3Z"/>
        <path d="M458.7,84.9c-.8,0-1.4-.3-1.8-1-.4-.7-.7-1.7-.7-3s.2-2.3.7-2.9c.4-.7,1-1,1.8-1s1.4.3,1.8,1c.4.7.7,1.7.7,2.9s-.2,2.3-.7,3c-.4.7-1,1-1.8,1ZM458.7,84.1c.3,0,.6-.1.8-.3.2-.2.4-.6.5-1s.2-1.1.2-1.8,0-1.4-.2-1.8-.3-.8-.5-1c-.2-.2-.5-.3-.8-.3s-.6.1-.8.3c-.2.2-.4.6-.5,1s-.2,1.1-.2,1.8,0,1.4.2,1.8.3.8.5,1c.2.2.5.3.8.3Z"/>
        <path d="M462.5,84.8v-.8h1.8v-5.6h-1.4v-.6c.3,0,.6-.1.9-.2.3,0,.5-.2.7-.3h.8v6.8h1.6v.8h-4.3Z"/>
        <path d="M470.3,84.9c-.8,0-1.4-.3-1.8-1-.4-.7-.7-1.7-.7-3s.2-2.3.7-2.9c.4-.7,1-1,1.8-1s1.4.3,1.8,1c.4.7.7,1.7.7,2.9s-.2,2.3-.7,3c-.4.7-1,1-1.8,1ZM470.3,84.1c.3,0,.6-.1.8-.3.2-.2.4-.6.5-1s.2-1.1.2-1.8,0-1.4-.2-1.8-.3-.8-.5-1c-.2-.2-.5-.3-.8-.3s-.6.1-.8.3c-.2.2-.4.6-.5,1s-.2,1.1-.2,1.8,0,1.4.2,1.8.3.8.5,1c.2.2.5.3.8.3Z"/>
        <path d="M474.1,84.8v-.8h1.8v-5.6h-1.4v-.6c.3,0,.6-.1.9-.2.3,0,.5-.2.7-.3h.8v6.8h1.6v.8h-4.3Z"/>
        <path d="M481.9,84.9c-.8,0-1.4-.3-1.8-1-.4-.7-.7-1.7-.7-3s.2-2.3.7-2.9c.4-.7,1-1,1.8-1s1.4.3,1.8,1c.4.7.7,1.7.7,2.9s-.2,2.3-.7,3c-.4.7-1,1-1.8,1ZM481.9,84.1c.3,0,.6-.1.8-.3.2-.2.4-.6.5-1s.2-1.1.2-1.8,0-1.4-.2-1.8-.3-.8-.5-1c-.2-.2-.5-.3-.8-.3s-.6.1-.8.3c-.2.2-.4.6-.5,1s-.2,1.1-.2,1.8,0,1.4.2,1.8.3.8.5,1c.2.2.5.3.8.3Z"/>
        <path d="M485.7,84.8v-.8h1.8v-5.6h-1.4v-.6c.3,0,.6-.1.9-.2.3,0,.5-.2.7-.3h.8v6.8h1.6v.8h-4.3Z"/>
        <path d="M493.6,84.9c-.8,0-1.4-.3-1.8-1-.4-.7-.7-1.7-.7-3s.2-2.3.7-2.9c.4-.7,1-1,1.8-1s1.4.3,1.8,1c.4.7.7,1.7.7,2.9s-.2,2.3-.7,3c-.4.7-1,1-1.8,1ZM493.6,84.1c.3,0,.6-.1.8-.3.2-.2.4-.6.5-1s.2-1.1.2-1.8,0-1.4-.2-1.8-.3-.8-.5-1c-.2-.2-.5-.3-.8-.3s-.6.1-.8.3c-.2.2-.4.6-.5,1s-.2,1.1-.2,1.8,0,1.4.2,1.8.3.8.5,1c.2.2.5.3.8.3Z"/>
      </g>
      <g>
        <path d="M434,94.8v-.8h1.8v-5.6h-1.4v-.6c.3,0,.6-.1.9-.2.3,0,.5-.2.7-.3h.8v6.8h1.6v.8h-4.3Z"/>
        <path d="M441.9,94.9c-.8,0-1.4-.3-1.8-1-.4-.7-.7-1.7-.7-3s.2-2.3.7-2.9c.4-.7,1-1,1.8-1s1.4.3,1.8,1c.4.7.7,1.7.7,2.9s-.2,2.3-.7,3c-.4.7-1,1-1.8,1ZM441.9,94.1c.3,0,.6-.1.8-.3.2-.2.4-.6.5-1s.2-1.1.2-1.8,0-1.4-.2-1.8-.3-.8-.5-1c-.2-.2-.5-.3-.8-.3s-.6.1-.8.3c-.2.2-.4.6-.5,1s-.2,1.1-.2,1.8,0,1.4.2,1.8.3.8.5,1c.2.2.5.3.8.3Z"/>
        <path d="M445.6,94.8v-.8h1.8v-5.6h-1.4v-.6c.3,0,.6-.1.9-.2.3,0,.5-.2.7-.3h.8v6.8h1.6v.8h-4.3Z"/>
        <path d="M453.5,94.9c-.8,0-1.4-.3-1.8-1-.4-.7-.7-1.7-.7-3s.2-2.3.7-2.9c.4-.7,1-1,1.8-1s1.4.3,1.8,1c.4.7.7,1.7.7,2.9s-.2,2.3-.7,3c-.4.7-1,1-1.8,1ZM453.5,94.1c.3,0,.6-.1.8-.3.2-.2.4-.6.5-1s.2-1.1.2-1.8,0-1.4-.2-1.8-.3-.8-.5-1c-.2-.2-.5-.3-.8-.3s-.6.1-.8.3c-.2.2-.4.6-.5,1s-.2,1.1-.2,1.8,0,1.4.2,1.8.3.8.5,1c.2.2.5.3.8.3Z"/>
        <path d="M457.2,94.8v-.8h1.8v-5.6h-1.4v-.6c.3,0,.6-.1.9-.2.3,0,.5-.2.7-.3h.8v6.8h1.6v.8h-4.3Z"/>
        <path d="M465.1,94.9c-.8,0-1.4-.3-1.8-1-.4-.7-.7-1.7-.7-3s.2-2.3.7-2.9c.4-.7,1-1,1.8-1s1.4.3,1.8,1c.4.7.7,1.7.7,2.9s-.2,2.3-.7,3c-.4.7-1,1-1.8,1ZM465.1,94.1c.3,0,.6-.1.8-.3.2-.2.4-.6.5-1s.2-1.1.2-1.8,0-1.4-.2-1.8-.3-.8-.5-1c-.2-.2-.5-.3-.8-.3s-.6.1-.8.3c-.2.2-.4.6-.5,1s-.2,1.1-.2,1.8,0,1.4.2,1.8.3.8.5,1c.2.2.5.3.8.3Z"/>
        <path d="M468.9,94.8v-.8h1.8v-5.6h-1.4v-.6c.3,0,.6-.1.9-.2.3,0,.5-.2.7-.3h.8v6.8h1.6v.8h-4.3Z"/>
        <path d="M476.7,94.9c-.8,0-1.4-.3-1.8-1-.4-.7-.7-1.7-.7-3s.2-2.3.7-2.9c.4-.7,1-1,1.8-1s1.4.3,1.8,1c.4.7.7,1.7.7,2.9s-.2,2.3-.7,3c-.4.7-1,1-1.8,1ZM476.7,94.1c.3,0,.6-.1.8-.3.2-.2.4-.6.5-1s.2-1.1.2-1.8,0-1.4-.2-1.8-.3-.8-.5-1c-.2-.2-.5-.3-.8-.3s-.6.1-.8.3c-.2.2-.4.6-.5,1s-.2,1.1-.2,1.8,0,1.4.2,1.8.3.8.5,1c.2.2.5.3.8.3Z"/>
        <path d="M480.5,94.8v-.8h1.8v-5.6h-1.4v-.6c.3,0,.6-.1.9-.2.3,0,.5-.2.7-.3h.8v6.8h1.6v.8h-4.3Z"/>
        <path d="M488.3,94.9c-.8,0-1.4-.3-1.8-1-.4-.7-.7-1.7-.7-3s.2-2.3.7-2.9c.4-.7,1-1,1.8-1s1.4.3,1.8,1c.4.7.7,1.7.7,2.9s-.2,2.3-.7,3c-.4.7-1,1-1.8,1ZM488.3,94.1c.3,0,.6-.1.8-.3.2-.2.4-.6.5-1s.2-1.1.2-1.8,0-1.4-.2-1.8-.3-.8-.5-1c-.2-.2-.5-.3-.8-.3s-.6.1-.8.3c-.2.2-.4.6-.5,1s-.2,1.1-.2,1.8,0,1.4.2,1.8.3.8.5,1c.2.2.5.3.8.3Z"/>
        <path d="M492.1,94.8v-.8h1.8v-5.6h-1.4v-.6c.3,0,.6-.1.9-.2.3,0,.5-.2.7-.3h.8v6.8h1.6v.8h-4.3Z"/>
        <path d="M499.9,94.9c-.8,0-1.4-.3-1.8-1-.4-.7-.7-1.7-.7-3s.2-2.3.7-2.9c.4-.7,1-1,1.8-1s1.4.3,1.8,1c.4.7.7,1.7.7,2.9s-.2,2.3-.7,3c-.4.7-1,1-1.8,1ZM499.9,94.1c.3,0,.6-.1.8-.3.2-.2.4-.6.5-1s.2-1.1.2-1.8,0-1.4-.2-1.8-.3-.8-.5-1c-.2-.2-.5-.3-.8-.3s-.6.1-.8.3c-.2.2-.4.6-.5,1s-.2,1.1-.2,1.8,0,1.4.2,1.8.3.8.5,1c.2.2.5.3.8.3Z"/>
        <path d="M503.7,94.8v-.8h1.8v-5.6h-1.4v-.6c.3,0,.6-.1.9-.2.3,0,.5-.2.7-.3h.8v6.8h1.6v.8h-4.3Z"/>
      </g>
      <g>
        <path d="M439.3,104.7v-.8h1.8v-5.6h-1.4v-.6c.3,0,.6-.1.9-.2.3,0,.5-.2.7-.3h.8v6.8h1.6v.8h-4.3Z"/>
        <path d="M447.1,104.8c-.8,0-1.4-.3-1.8-1-.4-.7-.7-1.7-.7-3s.2-2.3.7-2.9c.4-.7,1-1,1.8-1s1.4.3,1.8,1c.4.7.7,1.7.7,2.9s-.2,2.3-.7,3c-.4.7-1,1-1.8,1ZM447.1,104c.3,0,.6-.1.8-.3.2-.2.4-.6.5-1s.2-1.1.2-1.8,0-1.4-.2-1.8-.3-.8-.5-1c-.2-.2-.5-.3-.8-.3s-.6.1-.8.3c-.2.2-.4.6-.5,1s-.2,1.1-.2,1.8,0,1.4.2,1.8.3.8.5,1c.2.2.5.3.8.3Z"/>
        <path d="M450.9,104.7v-.8h1.8v-5.6h-1.4v-.6c.3,0,.6-.1.9-.2.3,0,.5-.2.7-.3h.8v6.8h1.6v.8h-4.3Z"/>
        <path d="M458.7,104.8c-.8,0-1.4-.3-1.8-1-.4-.7-.7-1.7-.7-3s.2-2.3.7-2.9c.4-.7,1-1,1.8-1s1.4.3,1.8,1c.4.7.7,1.7.7,2.9s-.2,2.3-.7,3c-.4.7-1,1-1.8,1ZM458.7,104c.3,0,.6-.1.8-.3.2-.2.4-.6.5-1s.2-1.1.2-1.8,0-1.4-.2-1.8-.3-.8-.5-1c-.2-.2-.5-.3-.8-.3s-.6.1-.8.3c-.2.2-.4.6-.5,1s-.2,1.1-.2,1.8,0,1.4.2,1.8.3.8.5,1c.2.2.5.3.8.3Z"/>
        <path d="M462.5,104.7v-.8h1.8v-5.6h-1.4v-.6c.3,0,.6-.1.9-.2.3,0,.5-.2.7-.3h.8v6.8h1.6v.8h-4.3Z"/>
        <path d="M470.3,104.8c-.8,0-1.4-.3-1.8-1-.4-.7-.7-1.7-.7-3s.2-2.3.7-2.9c.4-.7,1-1,1.8-1s1.4.3,1.8,1c.4.7.7,1.7.7,2.9s-.2,2.3-.7,3c-.4.7-1,1-1.8,1ZM470.3,104c.3,0,.6-.1.8-.3.2-.2.4-.6.5-1s.2-1.1.2-1.8,0-1.4-.2-1.8-.3-.8-.5-1c-.2-.2-.5-.3-.8-.3s-.6.1-.8.3c-.2.2-.4.6-.5,1s-.2,1.1-.2,1.8,0,1.4.2,1.8.3.8.5,1c.2.2.5.3.8.3Z"/>
        <path d="M474.1,104.7v-.8h1.8v-5.6h-1.4v-.6c.3,0,.6-.1.9-.2.3,0,.5-.2.7-.3h.8v6.8h1.6v.8h-4.3Z"/>
        <path d="M481.9,104.8c-.8,0-1.4-.3-1.8-1-.4-.7-.7-1.7-.7-3s.2-2.3.7-2.9c.4-.7,1-1,1.8-1s1.4.3,1.8,1c.4.7.7,1.7.7,2.9s-.2,2.3-.7,3c-.4.7-1,1-1.8,1ZM481.9,104c.3,0,.6-.1.8-.3.2-.2.4-.6.5-1s.2-1.1.2-1.8,0-1.4-.2-1.8-.3-.8-.5-1c-.2-.2-.5-.3-.8-.3s-.6.1-.8.3c-.2.2-.4.6-.5,1s-.2,1.1-.2,1.8,0,1.4.2,1.8.3.8.5,1c.2.2.5.3.8.3Z"/>
        <path d="M485.7,104.7v-.8h1.8v-5.6h-1.4v-.6c.3,0,.6-.1.9-.2.3,0,.5-.2.7-.3h.8v6.8h1.6v.8h-4.3Z"/>
        <path d="M493.6,104.8c-.8,0-1.4-.3-1.8-1-.4-.7-.7-1.7-.7-3s.2-2.3.7-2.9c.4-.7,1-1,1.8-1s1.4.3,1.8,1c.4.7.7,1.7.7,2.9s-.2,2.3-.7,3c-.4.7-1,1-1.8,1ZM493.6,104c.3,0,.6-.1.8-.3.2-.2.4-.6.5-1s.2-1.1.2-1.8,0-1.4-.2-1.8-.3-.8-.5-1c-.2-.2-.5-.3-.8-.3s-.6.1-.8.3c-.2.2-.4.6-.5,1s-.2,1.1-.2,1.8,0,1.4.2,1.8.3.8.5,1c.2.2.5.3.8.3Z"/>
        <path d="M497.3,104.7v-.8h1.8v-5.6h-1.4v-.6c.3,0,.6-.1.9-.2.3,0,.5-.2.7-.3h.8v6.8h1.6v.8h-4.3Z"/>
        <path d="M505.2,104.8c-.8,0-1.4-.3-1.8-1-.4-.7-.7-1.7-.7-3s.2-2.3.7-2.9c.4-.7,1-1,1.8-1s1.4.3,1.8,1c.4.7.7,1.7.7,2.9s-.2,2.3-.7,3c-.4.7-1,1-1.8,1ZM505.2,104c.3,0,.6-.1.8-.3.2-.2.4-.6.5-1s.2-1.1.2-1.8,0-1.4-.2-1.8-.3-.8-.5-1c-.2-.2-.5-.3-.8-.3s-.6.1-.8.3c-.2.2-.4.6-.5,1s-.2,1.1-.2,1.8,0,1.4.2,1.8.3.8.5,1c.2.2.5.3.8.3Z"/>
      </g>
      <g>
        <path d="M452.8,115.6c-.8,0-1.4-.3-1.8-1-.4-.7-.7-1.7-.7-3s.2-2.3.7-2.9c.4-.7,1-1,1.8-1s1.4.3,1.8,1c.4.7.7,1.7.7,2.9s-.2,2.3-.7,3c-.4.7-1,1-1.8,1ZM452.8,114.8c.3,0,.6-.1.8-.3.2-.2.4-.6.5-1s.2-1.1.2-1.8,0-1.4-.2-1.8-.3-.8-.5-1c-.2-.2-.5-.3-.8-.3s-.6.1-.8.3c-.2.2-.4.6-.5,1s-.2,1.1-.2,1.8,0,1.4.2,1.8.3.8.5,1c.2.2.5.3.8.3Z"/>
        <path d="M456.5,115.4v-.8h1.8v-5.6h-1.4v-.6c.3,0,.6-.1.9-.2.3,0,.5-.2.7-.3h.8v6.8h1.6v.8h-4.3Z"/>
        <path d="M464.4,115.6c-.8,0-1.4-.3-1.8-1-.4-.7-.7-1.7-.7-3s.2-2.3.7-2.9c.4-.7,1-1,1.8-1s1.4.3,1.8,1c.4.7.7,1.7.7,2.9s-.2,2.3-.7,3c-.4.7-1,1-1.8,1ZM464.4,114.8c.3,0,.6-.1.8-.3.2-.2.4-.6.5-1s.2-1.1.2-1.8,0-1.4-.2-1.8-.3-.8-.5-1c-.2-.2-.5-.3-.8-.3s-.6.1-.8.3c-.2.2-.4.6-.5,1s-.2,1.1-.2,1.8,0,1.4.2,1.8.3.8.5,1c.2.2.5.3.8.3Z"/>
        <path d="M468.1,115.4v-.8h1.8v-5.6h-1.4v-.6c.3,0,.6-.1.9-.2.3,0,.5-.2.7-.3h.8v6.8h1.6v.8h-4.3Z"/>
        <path d="M476,115.6c-.8,0-1.4-.3-1.8-1-.4-.7-.7-1.7-.7-3s.2-2.3.7-2.9c.4-.7,1-1,1.8-1s1.4.3,1.8,1c.4.7.7,1.7.7,2.9s-.2,2.3-.7,3c-.4.7-1,1-1.8,1ZM476,114.8c.3,0,.6-.1.8-.3.2-.2.4-.6.5-1s.2-1.1.2-1.8,0-1.4-.2-1.8-.3-.8-.5-1c-.2-.2-.5-.3-.8-.3s-.6.1-.8.3c-.2.2-.4.6-.5,1s-.2,1.1-.2,1.8,0,1.4.2,1.8.3.8.5,1c.2.2.5.3.8.3Z"/>
        <path d="M479.8,115.4v-.8h1.8v-5.6h-1.4v-.6c.3,0,.6-.1.9-.2.3,0,.5-.2.7-.3h.8v6.8h1.6v.8h-4.3Z"/>
        <path d="M487.6,115.6c-.8,0-1.4-.3-1.8-1-.4-.7-.7-1.7-.7-3s.2-2.3.7-2.9c.4-.7,1-1,1.8-1s1.4.3,1.8,1c.4.7.7,1.7.7,2.9s-.2,2.3-.7,3c-.4.7-1,1-1.8,1ZM487.6,114.8c.3,0,.6-.1.8-.3.2-.2.4-.6.5-1s.2-1.1.2-1.8,0-1.4-.2-1.8-.3-.8-.5-1c-.2-.2-.5-.3-.8-.3s-.6.1-.8.3c-.2.2-.4.6-.5,1s-.2,1.1-.2,1.8,0,1.4.2,1.8.3.8.5,1c.2.2.5.3.8.3Z"/>
        <path d="M491.4,115.4v-.8h1.8v-5.6h-1.4v-.6c.3,0,.6-.1.9-.2.3,0,.5-.2.7-.3h.8v6.8h1.6v.8h-4.3Z"/>
      </g>
    </g>
  </g>
</svg>